<svg xmlns="http://www.w3.org/2000/svg" viewBox="0 0 236 48"><path d="M175.4 16.5c.8.6 1.5 1.3 1.9 2.1s.7 1.7.9 2.7l.2 2.7c0 .8-.1 1.7-.2 2.7a6.18 6.18 0 0 1-.9 2.7c-.4.8-1.1 1.5-1.9 2.1s-2 .8-3.3.8c-1.4 0-2.5-.3-3.3-.8-.8-.6-1.5-1.3-2-2.1a6.18 6.18 0 0 1-.9-2.7l-.2-2.7c0-1 .1-2 .2-3s.4-1.9.8-2.7 1.1-1.4 1.9-1.9c.9-.5 2-.7 3.5-.7 1.4-.1 2.5.2 3.3.8zm-16.4 31h6.7V34.2l-1.2-1.6c.6 1.6 1.4 2.8 2.4 3.6s1.9 1.4 2.9 1.8c1.1.4 2.2.7 3.4.7 2.3 0 4.4-.6 6.2-1.6.8-.4 1.5-1 2.3-1.7.7-.7 1.4-1.6 2-2.6s1-2.3 1.4-3.7c.4-1.5.5-3.2.5-5.1s-.2-3.6-.6-5.1-.9-2.7-1.5-3.8-1.3-1.9-2.1-2.7c-.8-.7-1.6-1.3-2.4-1.7-1.9-1-4.1-1.6-6.6-1.7-2.4 0-4.3.3-6 1-1.6.7-3 1.7-4.1 3s-1.8 2.9-2.3 4.7-.7 3.9-.7 6.3v23.5h-.3zm51.3-32.1c-.6-1.6-1.4-2.8-2.4-3.6s-1.9-1.5-2.9-1.9c-1.1-.4-2.2-.7-3.4-.8-2.3.1-4.4.6-6.2 1.7-.8.4-1.5 1-2.3 1.7-.7.7-1.4 1.6-2 2.7s-1 2.3-1.4 3.8-.5 3.2-.5 5.1.2 3.6.6 5.1.9 2.7 1.5 3.7 1.3 1.9 2.1 2.6 1.6 1.3 2.4 1.7c1.9 1 4.2 1.5 6.7 1.6a13.89 13.89 0 0 0 6.5-1.6c.8-.4 1.6-1 2.4-1.7s1.5-1.6 2.1-2.6c.6-1.1 1.1-2.3 1.5-3.8s.6-3.2.6-5.1V.4h-6.7v13.4l1.4 1.6zm-11 16.1c-.8-.6-1.5-1.3-1.9-2.1s-.7-1.7-.9-2.7l-.2-2.7c0-.8.1-1.7.2-2.7a6.18 6.18 0 0 1 .9-2.7c.4-.8 1.1-1.5 1.9-2.1s1.9-.8 3.3-.8 2.5.3 3.3.8c.8.6 1.5 1.3 2 2.1a6.18 6.18 0 0 1 .9 2.7l.2 2.7c0 .8-.1 1.7-.2 2.7s-.5 1.9-.9 2.7c-.5.8-1.1 1.5-2 2.1-.8.6-1.9.8-3.3.8s-2.5-.3-3.3-.8zM227 11.8V9.6c0-.6.2-1 .5-1.5.3-.4.6-.7 1.1-1s1.2-.4 2.1-.4h5.3V.4h-7.8c-1.5.1-2.8.6-3.9 1.2-1 .6-1.9 1.4-2.7 2.5s-1.2 2.6-1.2 4.6v29.5h6.7v-20h5.9v-6.3h-6v-.1z" fill="#4d3f17"/><path d="M122.6 16.4V9.8h-6.4V2.2h-6.8v27.7c0 1.9.4 3.5 1.2 4.6s1.7 1.9 2.7 2.5c1.2.7 2.5 1.1 3.9 1.2h6.8v-6.8h-4.3c-.7 0-1.4-.1-1.8-.4-.5-.3-.8-.5-1.1-.8-.3-.4-.5-.8-.6-1.2V16.4h6.4zm4.9 12.7c.4 1.5.9 2.7 1.5 3.7s1.3 1.9 2.1 2.6 1.6 1.3 2.4 1.7c1.9 1 4.2 1.5 6.7 1.6 2.5 0 4.7-.6 6.6-1.6.8-.4 1.6-1 2.4-1.7s1.5-1.6 2.1-2.6 1.1-2.3 1.5-3.7c.4-1.5.6-3.2.6-5.1s-.2-3.6-.6-5.1-.9-2.7-1.5-3.8-1.3-1.9-2.1-2.7c-.8-.7-1.6-1.3-2.4-1.7-1.9-1-4.1-1.6-6.6-1.7-2.5.1-4.7.6-6.7 1.7-.8.4-1.6 1-2.4 1.7s-1.5 1.6-2.1 2.7-1.1 2.3-1.5 3.8-.6 3.2-.6 5.1.2 3.6.6 5.1zm16-12.6c.8.6 1.5 1.3 1.9 2.1s.7 1.7.9 2.7l.2 2.7c0 .8-.1 1.7-.2 2.7-.2 1-.4 1.9-.9 2.7-.4.8-1.1 1.5-1.9 2.1s-2 .8-3.3.8c-1.4 0-2.5-.3-3.3-.8-.8-.6-1.5-1.3-1.9-2.1s-.7-1.7-.9-2.7l-.2-2.7c0-.8.1-1.7.2-2.7a6.18 6.18 0 0 1 .9-2.7c.4-.8 1.1-1.5 1.9-2.1s1.9-.8 3.3-.8c1.3-.1 2.4.2 3.3.8z" fill="#13723b"/><path d="M72.1 16.5c-.5-1.1-1.1-2.1-1.7-2.9-.7-.8-1.4-1.5-2.1-2-.8-.5-1.5-1-2.3-1.3-1.8-.8-3.7-1.2-5.8-1.3-2.5.1-4.7.6-6.7 1.7-.8.4-1.6 1-2.4 1.7S49.6 14 49 15.1s-1.1 2.3-1.5 3.8-.6 3.2-.6 5.1.2 3.6.6 5.1.9 2.7 1.5 3.7 1.3 1.9 2.1 2.6 1.6 1.3 2.4 1.7c1.9 1 4.2 1.5 6.7 1.6 1.9 0 3.7-.3 5.4-1 .7-.3 1.4-.7 2.2-1.1a16.8 16.8 0 0 0 2.1-1.8c.7-.7 1.2-1.5 1.8-2.5.5-1 1-2.1 1.3-3.4h-7.3c-.4 1-1 1.8-1.9 2.6-.9.7-2.1 1.1-3.6 1.1s-2.7-.4-3.6-1.1-1.5-1.6-1.9-2.6c-.3-.6-.4-1.3-.6-1.9l-.3-1.9h19.6v-1c0-.7 0-1.3-.1-1.9l-.2-1.7c-.2-1.6-.5-2.9-1-4zm-17.8 3.8c.1-.6.4-1.2.7-1.8s.7-1.1 1.2-1.6 1.1-.9 1.7-1.1c.7-.3 1.5-.4 2.4-.4s1.7.1 2.4.4 1.2.7 1.7 1.1c.5.5.9 1 1.1 1.6.3.6.5 1.2.7 1.8H54.3zm30.2-6.6V.4h-6.7V24c0 1.9.2 3.6.6 5.1s.9 2.7 1.5 3.8a9.21 9.21 0 0 0 2.1 2.6c.8.7 1.6 1.3 2.4 1.7 1.9 1 4.1 1.5 6.5 1.6 2.5 0 4.7-.6 6.6-1.6.8-.4 1.6-1 2.4-1.7s1.5-1.6 2.1-2.6 1.1-2.3 1.5-3.7c.4-1.5.6-3.2.6-5.1s-.2-3.6-.5-5.1c-.4-1.5-.8-2.7-1.4-3.8s-1.2-1.9-2-2.7c-.7-.7-1.5-1.3-2.3-1.7-1.8-1-3.8-1.6-6.2-1.7-1.2.1-2.3.4-3.4.8-.9.4-1.9 1-2.9 1.9-1 .8-1.8 2-2.4 3.6l1.5-1.7zm3.2 17.8c-.8-.6-1.5-1.3-2-2.1a6.18 6.18 0 0 1-.9-2.7l-.2-2.7c0-.8.1-1.7.2-2.7s.5-1.9.9-2.7c.5-.8 1.1-1.5 2-2.1.8-.6 1.9-.8 3.3-.8s2.5.3 3.3.8c.8.6 1.5 1.3 1.9 2.1s.7 1.7.9 2.7l.2 2.7c0 .8-.1 1.7-.2 2.7a6.18 6.18 0 0 1-.9 2.7c-.4.8-1.1 1.5-1.9 2.1s-2 .8-3.3.8c-1.4 0-2.5-.3-3.3-.8z" fill="#4d3f17"/><path d="M25.2 26.5V7.2c0-2.3-1.8-4.1-4.1-4.1S17 5 17 7.2v19.3a4.48 4.48 0 0 1-4.5 4.5A4.48 4.48 0 0 1 8 26.5V7.2C8 5 6.2 3.1 3.9 3.1 1.7 3.1-.2 5-.2 7.2v19.3c0 7 5.7 12.7 12.7 12.7 3.3 0 6.3-1.3 8.6-3.4 2.5-2.3 4.1-5.6 4.1-9.3" fill="#13723b"/><path d="M29.6 39.2c-3.3 0-6.3-1.3-8.6-3.3a12.69 12.69 0 0 0 4.1-9c.2 2.3 2.1 4.2 4.5 4.2a4.48 4.48 0 0 0 4.5-4.5V7.2c0-2.3 1.8-4.1 4.1-4.1s4.1 1.8 4.1 4.1v19.3c0 3.7-1.6 7-4.1 9.3-2.2 2.1-5.3 3.4-8.6 3.4M17 26.9V7.2c0-2.3 1.8-4.1 4.1-4.1C18.8 3.1 17 5 17 7.2v19.7" fill="#97784f"/><path d="M21.1 35.8a12.69 12.69 0 0 1-4.1-9V7.2c0-2.3 1.8-4.1 4.1-4.1 2.2 0 4.1 1.8 4.1 4.1v19.6a12.69 12.69 0 0 1-4.1 9" fill="#1e4933"/><path d="M-4.9-8.5V8.6h50.1V-8.5H-4.9z" fill="#fff"/></svg>